solid CATIA STL
  facet normal  0.000000e+000  0.000000e+000  1.000000e+000
    outer loop
      vertex -4.500000e+001 -3.500000e+001  5.000000e+000
      vertex  5.500000e+001 -3.500000e+001  5.000000e+000
      vertex -4.500000e+001  3.500000e+001  5.000000e+000
    endloop
  endfacet
  facet normal  -0.000000e+000  0.000000e+000  1.000000e+000
    outer loop
      vertex -4.500000e+001  3.500000e+001  5.000000e+000
      vertex  5.500000e+001 -3.500000e+001  5.000000e+000
      vertex  5.500000e+001  3.500000e+001  5.000000e+000
    endloop
  endfacet
  facet normal  1.000000e+000  -0.000000e+000  0.000000e+000
    outer loop
      vertex -4.700000e+001  3.700000e+001  2.600000e+001
      vertex -4.700000e+001 -3.700000e+001  2.600000e+001
      vertex -4.700000e+001  3.700000e+001  7.000000e+000
    endloop
  endfacet
  facet normal  1.000000e+000  0.000000e+000  0.000000e+000
    outer loop
      vertex -4.700000e+001  3.700000e+001  7.000000e+000
      vertex -4.700000e+001 -3.700000e+001  2.600000e+001
      vertex -4.700000e+001 -3.700000e+001  7.000000e+000
    endloop
  endfacet
  facet normal  0.000000e+000  1.000000e+000  -0.000000e+000
    outer loop
      vertex  5.700000e+001 -3.700000e+001  2.600000e+001
      vertex  5.700000e+001 -3.700000e+001  7.000000e+000
      vertex -4.700000e+001 -3.700000e+001  2.600000e+001
    endloop
  endfacet
  facet normal  0.000000e+000  1.000000e+000  0.000000e+000
    outer loop
      vertex -4.700000e+001 -3.700000e+001  2.600000e+001
      vertex  5.700000e+001 -3.700000e+001  7.000000e+000
      vertex -4.700000e+001 -3.700000e+001  7.000000e+000
    endloop
  endfacet
  facet normal -1.000000e+000  -0.000000e+000  0.000000e+000
    outer loop
      vertex  5.700000e+001 -3.700000e+001  2.600000e+001
      vertex  5.700000e+001  3.700000e+001  2.600000e+001
      vertex  5.700000e+001 -3.700000e+001  7.000000e+000
    endloop
  endfacet
  facet normal -1.000000e+000  0.000000e+000  0.000000e+000
    outer loop
      vertex  5.700000e+001 -3.700000e+001  7.000000e+000
      vertex  5.700000e+001  3.700000e+001  2.600000e+001
      vertex  5.700000e+001  3.700000e+001  7.000000e+000
    endloop
  endfacet
  facet normal  0.000000e+000 -1.000000e+000  0.000000e+000
    outer loop
      vertex -4.700000e+001  3.700000e+001  2.600000e+001
      vertex -4.700000e+001  3.700000e+001  7.000000e+000
      vertex  5.700000e+001  3.700000e+001  2.600000e+001
    endloop
  endfacet
  facet normal  0.000000e+000 -1.000000e+000  -0.000000e+000
    outer loop
      vertex  5.700000e+001  3.700000e+001  2.600000e+001
      vertex -4.700000e+001  3.700000e+001  7.000000e+000
      vertex  5.700000e+001  3.700000e+001  7.000000e+000
    endloop
  endfacet
  facet normal -6.331232e-001  0.000000e+000  7.740510e-001
    outer loop
      vertex  5.655796e+001 -3.655796e+001  5.745903e+000
      vertex  5.592023e+001  3.592023e+001  5.224281e+000
      vertex  5.592023e+001 -3.592023e+001  5.224281e+000
    endloop
  endfacet
  facet normal -2.367915e-001  0.000000e+000  9.715605e-001
    outer loop
      vertex  5.592023e+001 -3.592023e+001  5.224281e+000
      vertex  5.592023e+001  3.592023e+001  5.224281e+000
      vertex  5.500000e+001  3.500000e+001  5.000000e+000
    endloop
  endfacet
  facet normal -2.367915e-001  0.000000e+000  9.715605e-001
    outer loop
      vertex  5.592023e+001 -3.592023e+001  5.224281e+000
      vertex  5.500000e+001  3.500000e+001  5.000000e+000
      vertex  5.500000e+001 -3.500000e+001  5.000000e+000
    endloop
  endfacet
  facet normal -6.331232e-001  0.000000e+000  7.740510e-001
    outer loop
      vertex  5.592023e+001  3.592023e+001  5.224281e+000
      vertex  5.655796e+001 -3.655796e+001  5.745903e+000
      vertex  5.655796e+001  3.655796e+001  5.745903e+000
    endloop
  endfacet
  facet normal -8.459923e-001  0.000000e+000  5.331953e-001
    outer loop
      vertex  5.655796e+001  3.655796e+001  5.745903e+000
      vertex  5.655796e+001 -3.655796e+001  5.745903e+000
      vertex  5.680350e+001 -3.680350e+001  6.135495e+000
    endloop
  endfacet
  facet normal -8.459922e-001  0.000000e+000  5.331953e-001
    outer loop
      vertex  5.655796e+001  3.655796e+001  5.745903e+000
      vertex  5.680350e+001 -3.680350e+001  6.135495e+000
      vertex  5.680350e+001  3.680350e+001  6.135495e+000
    endloop
  endfacet
  facet normal -9.751288e-001  0.000000e+000  2.216389e-001
    outer loop
      vertex  5.680350e+001  3.680350e+001  6.135495e+000
      vertex  5.680350e+001 -3.680350e+001  6.135495e+000
      vertex  5.700000e+001 -3.700000e+001  7.000000e+000
    endloop
  endfacet
  facet normal -9.751289e-001  0.000000e+000  2.216389e-001
    outer loop
      vertex  5.680350e+001  3.680350e+001  6.135495e+000
      vertex  5.700000e+001 -3.700000e+001  7.000000e+000
      vertex  5.700000e+001  3.700000e+001  7.000000e+000
    endloop
  endfacet
  facet normal  -0.000000e+000  8.459923e-001  5.331953e-001
    outer loop
      vertex  5.655796e+001 -3.655796e+001  5.745903e+000
      vertex -4.680350e+001 -3.680350e+001  6.135495e+000
      vertex  5.680350e+001 -3.680350e+001  6.135495e+000
    endloop
  endfacet
  facet normal  0.000000e+000  9.751288e-001  2.216389e-001
    outer loop
      vertex  5.680350e+001 -3.680350e+001  6.135495e+000
      vertex -4.680350e+001 -3.680350e+001  6.135495e+000
      vertex -4.700000e+001 -3.700000e+001  7.000000e+000
    endloop
  endfacet
  facet normal  -0.000000e+000  9.751288e-001  2.216389e-001
    outer loop
      vertex  5.680350e+001 -3.680350e+001  6.135495e+000
      vertex -4.700000e+001 -3.700000e+001  7.000000e+000
      vertex  5.700000e+001 -3.700000e+001  7.000000e+000
    endloop
  endfacet
  facet normal  0.000000e+000  8.459923e-001  5.331952e-001
    outer loop
      vertex -4.680350e+001 -3.680350e+001  6.135495e+000
      vertex  5.655796e+001 -3.655796e+001  5.745903e+000
      vertex -4.655796e+001 -3.655796e+001  5.745903e+000
    endloop
  endfacet
  facet normal  -0.000000e+000  6.331232e-001  7.740511e-001
    outer loop
      vertex -4.655796e+001 -3.655796e+001  5.745903e+000
      vertex  5.655796e+001 -3.655796e+001  5.745903e+000
      vertex  5.592023e+001 -3.592023e+001  5.224281e+000
    endloop
  endfacet
  facet normal  0.000000e+000  6.331232e-001  7.740510e-001
    outer loop
      vertex -4.655796e+001 -3.655796e+001  5.745903e+000
      vertex  5.592023e+001 -3.592023e+001  5.224281e+000
      vertex -4.592023e+001 -3.592023e+001  5.224281e+000
    endloop
  endfacet
  facet normal  -0.000000e+000  2.367915e-001  9.715606e-001
    outer loop
      vertex -4.592023e+001 -3.592023e+001  5.224281e+000
      vertex  5.592023e+001 -3.592023e+001  5.224281e+000
      vertex  5.500000e+001 -3.500000e+001  5.000000e+000
    endloop
  endfacet
  facet normal  0.000000e+000  2.367915e-001  9.715605e-001
    outer loop
      vertex -4.592023e+001 -3.592023e+001  5.224281e+000
      vertex  5.500000e+001 -3.500000e+001  5.000000e+000
      vertex -4.500000e+001 -3.500000e+001  5.000000e+000
    endloop
  endfacet
  facet normal  6.331232e-001  -0.000000e+000  7.740510e-001
    outer loop
      vertex -4.655796e+001  3.655796e+001  5.745903e+000
      vertex -4.592023e+001 -3.592023e+001  5.224281e+000
      vertex -4.592023e+001  3.592023e+001  5.224281e+000
    endloop
  endfacet
  facet normal  2.367915e-001  0.000000e+000  9.715605e-001
    outer loop
      vertex -4.592023e+001  3.592023e+001  5.224281e+000
      vertex -4.592023e+001 -3.592023e+001  5.224281e+000
      vertex -4.500000e+001 -3.500000e+001  5.000000e+000
    endloop
  endfacet
  facet normal  2.367915e-001  -0.000000e+000  9.715605e-001
    outer loop
      vertex -4.592023e+001  3.592023e+001  5.224281e+000
      vertex -4.500000e+001 -3.500000e+001  5.000000e+000
      vertex -4.500000e+001  3.500000e+001  5.000000e+000
    endloop
  endfacet
  facet normal  6.331232e-001  0.000000e+000  7.740510e-001
    outer loop
      vertex -4.592023e+001 -3.592023e+001  5.224281e+000
      vertex -4.655796e+001  3.655796e+001  5.745903e+000
      vertex -4.655796e+001 -3.655796e+001  5.745903e+000
    endloop
  endfacet
  facet normal  8.459923e-001  -0.000000e+000  5.331953e-001
    outer loop
      vertex -4.655796e+001 -3.655796e+001  5.745903e+000
      vertex -4.655796e+001  3.655796e+001  5.745903e+000
      vertex -4.680350e+001  3.680350e+001  6.135495e+000
    endloop
  endfacet
  facet normal  8.459922e-001  0.000000e+000  5.331953e-001
    outer loop
      vertex -4.655796e+001 -3.655796e+001  5.745903e+000
      vertex -4.680350e+001  3.680350e+001  6.135495e+000
      vertex -4.680350e+001 -3.680350e+001  6.135495e+000
    endloop
  endfacet
  facet normal  9.751288e-001  -0.000000e+000  2.216389e-001
    outer loop
      vertex -4.680350e+001 -3.680350e+001  6.135495e+000
      vertex -4.680350e+001  3.680350e+001  6.135495e+000
      vertex -4.700000e+001  3.700000e+001  7.000000e+000
    endloop
  endfacet
  facet normal  9.751289e-001  0.000000e+000  2.216389e-001
    outer loop
      vertex -4.680350e+001 -3.680350e+001  6.135495e+000
      vertex -4.700000e+001  3.700000e+001  7.000000e+000
      vertex -4.700000e+001 -3.700000e+001  7.000000e+000
    endloop
  endfacet
  facet normal  0.000000e+000 -8.459923e-001  5.331953e-001
    outer loop
      vertex -4.655796e+001  3.655796e+001  5.745903e+000
      vertex  5.680350e+001  3.680350e+001  6.135495e+000
      vertex -4.680350e+001  3.680350e+001  6.135495e+000
    endloop
  endfacet
  facet normal  0.000000e+000 -9.751288e-001  2.216389e-001
    outer loop
      vertex -4.680350e+001  3.680350e+001  6.135495e+000
      vertex  5.680350e+001  3.680350e+001  6.135495e+000
      vertex  5.700000e+001  3.700000e+001  7.000000e+000
    endloop
  endfacet
  facet normal  0.000000e+000 -9.751288e-001  2.216389e-001
    outer loop
      vertex -4.680350e+001  3.680350e+001  6.135495e+000
      vertex  5.700000e+001  3.700000e+001  7.000000e+000
      vertex -4.700000e+001  3.700000e+001  7.000000e+000
    endloop
  endfacet
  facet normal  0.000000e+000 -8.459923e-001  5.331952e-001
    outer loop
      vertex  5.680350e+001  3.680350e+001  6.135495e+000
      vertex -4.655796e+001  3.655796e+001  5.745903e+000
      vertex  5.655796e+001  3.655796e+001  5.745903e+000
    endloop
  endfacet
  facet normal  0.000000e+000 -6.331232e-001  7.740511e-001
    outer loop
      vertex  5.655796e+001  3.655796e+001  5.745903e+000
      vertex -4.655796e+001  3.655796e+001  5.745903e+000
      vertex -4.592023e+001  3.592023e+001  5.224281e+000
    endloop
  endfacet
  facet normal  0.000000e+000 -6.331232e-001  7.740510e-001
    outer loop
      vertex  5.655796e+001  3.655796e+001  5.745903e+000
      vertex -4.592023e+001  3.592023e+001  5.224281e+000
      vertex  5.592023e+001  3.592023e+001  5.224281e+000
    endloop
  endfacet
  facet normal  0.000000e+000 -2.367915e-001  9.715606e-001
    outer loop
      vertex  5.592023e+001  3.592023e+001  5.224281e+000
      vertex -4.592023e+001  3.592023e+001  5.224281e+000
      vertex -4.500000e+001  3.500000e+001  5.000000e+000
    endloop
  endfacet
  facet normal  0.000000e+000 -2.367915e-001  9.715605e-001
    outer loop
      vertex  5.592023e+001  3.592023e+001  5.224281e+000
      vertex -4.500000e+001  3.500000e+001  5.000000e+000
      vertex  5.500000e+001  3.500000e+001  5.000000e+000
    endloop
  endfacet
  facet normal  0.000000e+000  0.000000e+000 -1.000000e+000
    outer loop
      vertex -5.000000e+001 -4.000000e+001  0.000000e+000
      vertex -5.000000e+001  4.000000e+001  0.000000e+000
      vertex  6.000000e+001 -4.000000e+001  0.000000e+000
    endloop
  endfacet
  facet normal  0.000000e+000  0.000000e+000 -1.000000e+000
    outer loop
      vertex  6.000000e+001 -4.000000e+001  0.000000e+000
      vertex -5.000000e+001  4.000000e+001  0.000000e+000
      vertex  6.000000e+001  4.000000e+001  0.000000e+000
    endloop
  endfacet
  facet normal  0.000000e+000  0.000000e+000  9.999999e-001
    outer loop
      vertex  6.000000e+001 -4.000000e+001  2.600000e+001
      vertex  5.700000e+001 -3.700000e+001  2.600000e+001
      vertex -5.000000e+001 -4.000000e+001  2.600000e+001
    endloop
  endfacet
  facet normal  0.000000e+000  0.000000e+000  1.000000e+000
    outer loop
      vertex -5.000000e+001 -4.000000e+001  2.600000e+001
      vertex  5.700000e+001 -3.700000e+001  2.600000e+001
      vertex -4.700000e+001 -3.700000e+001  2.600000e+001
    endloop
  endfacet
  facet normal  0.000000e+000  0.000000e+000  1.000000e+000
    outer loop
      vertex -5.000000e+001 -4.000000e+001  2.600000e+001
      vertex -4.700000e+001 -3.700000e+001  2.600000e+001
      vertex -5.000000e+001  4.000000e+001  2.600000e+001
    endloop
  endfacet
  facet normal  0.000000e+000  0.000000e+000  1.000000e+000
    outer loop
      vertex -5.000000e+001  4.000000e+001  2.600000e+001
      vertex -4.700000e+001 -3.700000e+001  2.600000e+001
      vertex -4.700000e+001  3.700000e+001  2.600000e+001
    endloop
  endfacet
  facet normal  0.000000e+000  -0.000000e+000  9.999999e-001
    outer loop
      vertex -5.000000e+001  4.000000e+001  2.600000e+001
      vertex -4.700000e+001  3.700000e+001  2.600000e+001
      vertex  6.000000e+001  4.000000e+001  2.600000e+001
    endloop
  endfacet
  facet normal  0.000000e+000  0.000000e+000  1.000000e+000
    outer loop
      vertex  6.000000e+001  4.000000e+001  2.600000e+001
      vertex -4.700000e+001  3.700000e+001  2.600000e+001
      vertex  5.700000e+001  3.700000e+001  2.600000e+001
    endloop
  endfacet
  facet normal  -0.000000e+000  0.000000e+000  1.000000e+000
    outer loop
      vertex  6.000000e+001  4.000000e+001  2.600000e+001
      vertex  5.700000e+001  3.700000e+001  2.600000e+001
      vertex  6.000000e+001 -4.000000e+001  2.600000e+001
    endloop
  endfacet
  facet normal  0.000000e+000  0.000000e+000  1.000000e+000
    outer loop
      vertex  6.000000e+001 -4.000000e+001  2.600000e+001
      vertex  5.700000e+001  3.700000e+001  2.600000e+001
      vertex  5.700000e+001 -3.700000e+001  2.600000e+001
    endloop
  endfacet
  facet normal  0.000000e+000 -1.000000e+000  0.000000e+000
    outer loop
      vertex  6.000000e+001 -4.000000e+001  2.600000e+001
      vertex -5.000000e+001 -4.000000e+001  2.600000e+001
      vertex  6.000000e+001 -4.000000e+001  0.000000e+000
    endloop
  endfacet
  facet normal  0.000000e+000 -1.000000e+000  0.000000e+000
    outer loop
      vertex  6.000000e+001 -4.000000e+001  0.000000e+000
      vertex -5.000000e+001 -4.000000e+001  2.600000e+001
      vertex -5.000000e+001 -4.000000e+001  0.000000e+000
    endloop
  endfacet
  facet normal  1.000000e+000  0.000000e+000  0.000000e+000
    outer loop
      vertex  6.000000e+001 -4.000000e+001  2.600000e+001
      vertex  6.000000e+001 -4.000000e+001  0.000000e+000
      vertex  6.000000e+001  4.000000e+001  2.600000e+001
    endloop
  endfacet
  facet normal  1.000000e+000  0.000000e+000  0.000000e+000
    outer loop
      vertex  6.000000e+001  4.000000e+001  2.600000e+001
      vertex  6.000000e+001 -4.000000e+001  0.000000e+000
      vertex  6.000000e+001  4.000000e+001  0.000000e+000
    endloop
  endfacet
  facet normal -1.000000e+000  0.000000e+000  0.000000e+000
    outer loop
      vertex -5.000000e+001  4.000000e+001  2.600000e+001
      vertex -5.000000e+001  4.000000e+001  0.000000e+000
      vertex -5.000000e+001 -4.000000e+001  2.600000e+001
    endloop
  endfacet
  facet normal -1.000000e+000  0.000000e+000  0.000000e+000
    outer loop
      vertex -5.000000e+001 -4.000000e+001  2.600000e+001
      vertex -5.000000e+001  4.000000e+001  0.000000e+000
      vertex -5.000000e+001 -4.000000e+001  0.000000e+000
    endloop
  endfacet
  facet normal  0.000000e+000  1.000000e+000  0.000000e+000
    outer loop
      vertex -5.000000e+001  4.000000e+001  2.600000e+001
      vertex  6.000000e+001  4.000000e+001  2.600000e+001
      vertex -5.000000e+001  4.000000e+001  0.000000e+000
    endloop
  endfacet
  facet normal  0.000000e+000  1.000000e+000  0.000000e+000
    outer loop
      vertex -5.000000e+001  4.000000e+001  0.000000e+000
      vertex  6.000000e+001  4.000000e+001  2.600000e+001
      vertex  6.000000e+001  4.000000e+001  0.000000e+000
    endloop
  endfacet
endsolid CATIA STL
