solid CATIA STL
  facet normal  1.000000e+000  -0.000000e+000  0.000000e+000
    outer loop
      vertex  0.000000e+000  5.000000e+001  2.000000e+001
      vertex  0.000000e+000 -1.500000e+001  2.000000e+001
      vertex  0.000000e+000  5.000000e+001  0.000000e+000
    endloop
  endfacet
  facet normal  1.000000e+000  0.000000e+000  0.000000e+000
    outer loop
      vertex  0.000000e+000  5.000000e+001  0.000000e+000
      vertex  0.000000e+000 -1.500000e+001  2.000000e+001
      vertex  0.000000e+000 -1.500000e+001  0.000000e+000
    endloop
  endfacet
  facet normal  0.000000e+000  1.000000e+000  -0.000000e+000
    outer loop
      vertex  8.000000e+001 -2.000000e+001  2.000000e+001
      vertex  8.000000e+001 -2.000000e+001  0.000000e+000
      vertex  5.000000e+000 -2.000000e+001  2.000000e+001
    endloop
  endfacet
  facet normal  0.000000e+000  1.000000e+000  0.000000e+000
    outer loop
      vertex  5.000000e+000 -2.000000e+001  2.000000e+001
      vertex  8.000000e+001 -2.000000e+001  0.000000e+000
      vertex  5.000000e+000 -2.000000e+001  0.000000e+000
    endloop
  endfacet
  facet normal  0.000000e+000  0.000000e+000 -1.000000e+000
    outer loop
      vertex  8.000000e+001 -2.000000e+001  0.000000e+000
      vertex  8.000000e+001 -3.000000e+001  0.000000e+000
      vertex  0.000000e+000 -3.000000e+001  0.000000e+000
    endloop
  endfacet
  facet normal  0.000000e+000  0.000000e+000 -1.000000e+000
    outer loop
      vertex -1.000000e+001 -3.000000e+001  0.000000e+000
      vertex -1.000000e+001  5.000000e+001  0.000000e+000
      vertex  0.000000e+000  5.000000e+001  0.000000e+000
    endloop
  endfacet
  facet normal  0.000000e+000  -0.000000e+000 -1.000000e+000
    outer loop
      vertex -1.000000e+001 -3.000000e+001  0.000000e+000
      vertex  0.000000e+000  5.000000e+001  0.000000e+000
      vertex  0.000000e+000 -1.500000e+001  0.000000e+000
    endloop
  endfacet
  facet normal  0.000000e+000  -0.000000e+000 -1.000000e+000
    outer loop
      vertex -1.000000e+001 -3.000000e+001  0.000000e+000
      vertex  0.000000e+000 -1.500000e+001  0.000000e+000
      vertex  6.698730e-001 -1.750000e+001  0.000000e+000
    endloop
  endfacet
  facet normal  0.000000e+000  -0.000000e+000 -1.000000e+000
    outer loop
      vertex -1.000000e+001 -3.000000e+001  0.000000e+000
      vertex  6.698730e-001 -1.750000e+001  0.000000e+000
      vertex  2.500000e+000 -1.933013e+001  0.000000e+000
    endloop
  endfacet
  facet normal  0.000000e+000  -0.000000e+000 -1.000000e+000
    outer loop
      vertex -1.000000e+001 -3.000000e+001  0.000000e+000
      vertex  2.500000e+000 -1.933013e+001  0.000000e+000
      vertex  5.000000e+000 -2.000000e+001  0.000000e+000
    endloop
  endfacet
  facet normal  0.000000e+000  -0.000000e+000 -1.000000e+000
    outer loop
      vertex -1.000000e+001 -3.000000e+001  0.000000e+000
      vertex  5.000000e+000 -2.000000e+001  0.000000e+000
      vertex  8.000000e+001 -2.000000e+001  0.000000e+000
    endloop
  endfacet
  facet normal  0.000000e+000  0.000000e+000 -1.000000e+000
    outer loop
      vertex -1.000000e+001 -3.000000e+001  0.000000e+000
      vertex  8.000000e+001 -2.000000e+001  0.000000e+000
      vertex  0.000000e+000 -3.000000e+001  0.000000e+000
    endloop
  endfacet
  facet normal  0.000000e+000  -0.000000e+000  1.000000e+000
    outer loop
      vertex  0.000000e+000 -3.000000e+001  2.000000e+001
      vertex  8.000000e+001 -3.000000e+001  2.000000e+001
      vertex  8.000000e+001 -2.000000e+001  2.000000e+001
    endloop
  endfacet
  facet normal  0.000000e+000  -0.000000e+000  1.000000e+000
    outer loop
      vertex -1.000000e+001 -3.000000e+001  2.000000e+001
      vertex  0.000000e+000 -3.000000e+001  2.000000e+001
      vertex  8.000000e+001 -2.000000e+001  2.000000e+001
    endloop
  endfacet
  facet normal  0.000000e+000  0.000000e+000  1.000000e+000
    outer loop
      vertex -1.000000e+001 -3.000000e+001  2.000000e+001
      vertex  8.000000e+001 -2.000000e+001  2.000000e+001
      vertex  5.000000e+000 -2.000000e+001  2.000000e+001
    endloop
  endfacet
  facet normal  0.000000e+000  0.000000e+000  1.000000e+000
    outer loop
      vertex -1.000000e+001 -3.000000e+001  2.000000e+001
      vertex  5.000000e+000 -2.000000e+001  2.000000e+001
      vertex  2.500000e+000 -1.933013e+001  2.000000e+001
    endloop
  endfacet
  facet normal  0.000000e+000  0.000000e+000  1.000000e+000
    outer loop
      vertex -1.000000e+001 -3.000000e+001  2.000000e+001
      vertex  2.500000e+000 -1.933013e+001  2.000000e+001
      vertex  6.698730e-001 -1.750000e+001  2.000000e+001
    endloop
  endfacet
  facet normal  0.000000e+000  0.000000e+000  1.000000e+000
    outer loop
      vertex -1.000000e+001 -3.000000e+001  2.000000e+001
      vertex  6.698730e-001 -1.750000e+001  2.000000e+001
      vertex  0.000000e+000 -1.500000e+001  2.000000e+001
    endloop
  endfacet
  facet normal  0.000000e+000  -0.000000e+000  1.000000e+000
    outer loop
      vertex -1.000000e+001 -3.000000e+001  2.000000e+001
      vertex  0.000000e+000 -1.500000e+001  2.000000e+001
      vertex  0.000000e+000  5.000000e+001  2.000000e+001
    endloop
  endfacet
  facet normal  0.000000e+000  0.000000e+000  1.000000e+000
    outer loop
      vertex -1.000000e+001 -3.000000e+001  2.000000e+001
      vertex  0.000000e+000  5.000000e+001  2.000000e+001
      vertex -1.000000e+001  5.000000e+001  2.000000e+001
    endloop
  endfacet
  facet normal  2.588188e-001  9.659259e-001  0.000000e+000
    outer loop
      vertex  2.500000e+000 -1.933013e+001  0.000000e+000
      vertex  5.000000e+000 -2.000000e+001  2.000000e+001
      vertex  5.000000e+000 -2.000000e+001  0.000000e+000
    endloop
  endfacet
  facet normal  2.588188e-001  9.659259e-001  -0.000000e+000
    outer loop
      vertex  5.000000e+000 -2.000000e+001  2.000000e+001
      vertex  2.500000e+000 -1.933013e+001  0.000000e+000
      vertex  2.500000e+000 -1.933013e+001  2.000000e+001
    endloop
  endfacet
  facet normal  7.071069e-001  7.071066e-001  0.000000e+000
    outer loop
      vertex  2.500000e+000 -1.933013e+001  2.000000e+001
      vertex  2.500000e+000 -1.933013e+001  0.000000e+000
      vertex  6.698730e-001 -1.750000e+001  0.000000e+000
    endloop
  endfacet
  facet normal  7.071069e-001  7.071066e-001  -0.000000e+000
    outer loop
      vertex  2.500000e+000 -1.933013e+001  2.000000e+001
      vertex  6.698730e-001 -1.750000e+001  0.000000e+000
      vertex  6.698730e-001 -1.750000e+001  2.000000e+001
    endloop
  endfacet
  facet normal  9.659259e-001  2.588191e-001  0.000000e+000
    outer loop
      vertex  6.698730e-001 -1.750000e+001  2.000000e+001
      vertex  6.698730e-001 -1.750000e+001  0.000000e+000
      vertex  0.000000e+000 -1.500000e+001  0.000000e+000
    endloop
  endfacet
  facet normal  9.659259e-001  2.588191e-001  -0.000000e+000
    outer loop
      vertex  6.698730e-001 -1.750000e+001  2.000000e+001
      vertex  0.000000e+000 -1.500000e+001  0.000000e+000
      vertex  0.000000e+000 -1.500000e+001  2.000000e+001
    endloop
  endfacet
  facet normal  0.000000e+000  1.000000e+000  0.000000e+000
    outer loop
      vertex -1.000000e+001  5.000000e+001  0.000000e+000
      vertex -1.000000e+001  5.000000e+001  2.000000e+001
      vertex  0.000000e+000  5.000000e+001  0.000000e+000
    endloop
  endfacet
  facet normal  0.000000e+000  1.000000e+000  -0.000000e+000
    outer loop
      vertex  0.000000e+000  5.000000e+001  0.000000e+000
      vertex -1.000000e+001  5.000000e+001  2.000000e+001
      vertex  0.000000e+000  5.000000e+001  2.000000e+001
    endloop
  endfacet
  facet normal  1.000000e+000  0.000000e+000  0.000000e+000
    outer loop
      vertex  8.000000e+001 -3.000000e+001  0.000000e+000
      vertex  8.000000e+001 -2.000000e+001  0.000000e+000
      vertex  8.000000e+001 -3.000000e+001  2.000000e+001
    endloop
  endfacet
  facet normal  1.000000e+000  -0.000000e+000  0.000000e+000
    outer loop
      vertex  8.000000e+001 -3.000000e+001  2.000000e+001
      vertex  8.000000e+001 -2.000000e+001  0.000000e+000
      vertex  8.000000e+001 -2.000000e+001  2.000000e+001
    endloop
  endfacet
  facet normal  0.000000e+000 -1.000000e+000  0.000000e+000
    outer loop
      vertex  8.000000e+001 -3.000000e+001  2.000000e+001
      vertex  0.000000e+000 -3.000000e+001  2.000000e+001
      vertex  8.000000e+001 -3.000000e+001  0.000000e+000
    endloop
  endfacet
  facet normal  0.000000e+000 -1.000000e+000  0.000000e+000
    outer loop
      vertex  8.000000e+001 -3.000000e+001  0.000000e+000
      vertex  0.000000e+000 -3.000000e+001  2.000000e+001
      vertex  0.000000e+000 -3.000000e+001  0.000000e+000
    endloop
  endfacet
  facet normal  0.000000e+000 -1.000000e+000  0.000000e+000
    outer loop
      vertex  0.000000e+000 -3.000000e+001  2.000000e+001
      vertex -1.000000e+001 -3.000000e+001  2.000000e+001
      vertex  0.000000e+000 -3.000000e+001  0.000000e+000
    endloop
  endfacet
  facet normal  0.000000e+000 -1.000000e+000  0.000000e+000
    outer loop
      vertex  0.000000e+000 -3.000000e+001  0.000000e+000
      vertex -1.000000e+001 -3.000000e+001  2.000000e+001
      vertex -1.000000e+001 -3.000000e+001  0.000000e+000
    endloop
  endfacet
  facet normal -1.000000e+000  0.000000e+000  0.000000e+000
    outer loop
      vertex -1.000000e+001  5.000000e+001  2.000000e+001
      vertex -1.000000e+001  5.000000e+001  0.000000e+000
      vertex -1.000000e+001 -3.000000e+001  2.000000e+001
    endloop
  endfacet
  facet normal -1.000000e+000  0.000000e+000  0.000000e+000
    outer loop
      vertex -1.000000e+001 -3.000000e+001  2.000000e+001
      vertex -1.000000e+001  5.000000e+001  0.000000e+000
      vertex -1.000000e+001 -3.000000e+001  0.000000e+000
    endloop
  endfacet
endsolid CATIA STL
